<mxfile host="app.diagrams.net" agent="Mozilla/5.0 (Windows NT 10.0; Win64; x64) AppleWebKit/537.36 (KHTML, like Gecko) Chrome/137.0.0.0 Safari/537.36" version="27.1.6">
  <diagram name="第 1 页" id="EWCGRqyuyG-UPrSn--Gp">
    <mxGraphModel dx="3101" dy="2091" grid="1" gridSize="10" guides="1" tooltips="1" connect="1" arrows="1" fold="1" page="0" pageScale="1" pageWidth="827" pageHeight="1169" math="0" shadow="0">
      <root>
        <mxCell id="0" />
        <mxCell id="1" parent="0" />
        <mxCell id="43ZJeblcSDLC2HeD9tNM-23" style="edgeStyle=orthogonalEdgeStyle;rounded=0;orthogonalLoop=1;jettySize=auto;html=1;exitX=1;exitY=0.25;exitDx=0;exitDy=0;entryX=0;entryY=0.5;entryDx=0;entryDy=0;" edge="1" parent="1" source="43ZJeblcSDLC2HeD9tNM-1" target="43ZJeblcSDLC2HeD9tNM-4">
          <mxGeometry relative="1" as="geometry" />
        </mxCell>
        <mxCell id="43ZJeblcSDLC2HeD9tNM-24" style="edgeStyle=orthogonalEdgeStyle;rounded=0;orthogonalLoop=1;jettySize=auto;html=1;exitX=1;exitY=0.75;exitDx=0;exitDy=0;entryX=0;entryY=0.5;entryDx=0;entryDy=0;" edge="1" parent="1" source="43ZJeblcSDLC2HeD9tNM-1" target="43ZJeblcSDLC2HeD9tNM-20">
          <mxGeometry relative="1" as="geometry" />
        </mxCell>
        <mxCell id="43ZJeblcSDLC2HeD9tNM-1" value="&lt;font style=&quot;font-size: 24px;&quot;&gt;影像数据管理&lt;/font&gt;" style="rounded=1;whiteSpace=wrap;html=1;fontStyle=1" vertex="1" parent="1">
          <mxGeometry x="-1450" y="-590" width="200" height="100" as="geometry" />
        </mxCell>
        <mxCell id="43ZJeblcSDLC2HeD9tNM-25" style="edgeStyle=orthogonalEdgeStyle;rounded=0;orthogonalLoop=1;jettySize=auto;html=1;exitX=1;exitY=0.25;exitDx=0;exitDy=0;entryX=0;entryY=0.5;entryDx=0;entryDy=0;" edge="1" parent="1" source="43ZJeblcSDLC2HeD9tNM-4" target="43ZJeblcSDLC2HeD9tNM-5">
          <mxGeometry relative="1" as="geometry" />
        </mxCell>
        <mxCell id="43ZJeblcSDLC2HeD9tNM-27" style="edgeStyle=orthogonalEdgeStyle;rounded=0;orthogonalLoop=1;jettySize=auto;html=1;exitX=1;exitY=0.75;exitDx=0;exitDy=0;" edge="1" parent="1" source="43ZJeblcSDLC2HeD9tNM-4" target="43ZJeblcSDLC2HeD9tNM-8">
          <mxGeometry relative="1" as="geometry" />
        </mxCell>
        <mxCell id="43ZJeblcSDLC2HeD9tNM-4" value="&lt;font style=&quot;font-size: 24px;&quot;&gt;航片数据&lt;/font&gt;" style="rounded=1;whiteSpace=wrap;html=1;fontStyle=0" vertex="1" parent="1">
          <mxGeometry x="-1160" y="-700" width="200" height="100" as="geometry" />
        </mxCell>
        <mxCell id="43ZJeblcSDLC2HeD9tNM-5" value="&lt;font style=&quot;font-size: 24px;&quot;&gt;NDVI&lt;/font&gt;" style="rounded=1;whiteSpace=wrap;html=1;fontStyle=2;fontFamily=Times New Roman;" vertex="1" parent="1">
          <mxGeometry x="-850" y="-790" width="200" height="100" as="geometry" />
        </mxCell>
        <mxCell id="43ZJeblcSDLC2HeD9tNM-8" value="&lt;font style=&quot;font-size: 24px;&quot;&gt;RGB&lt;/font&gt;" style="rounded=1;whiteSpace=wrap;html=1;fontStyle=2;fontFamily=Times New Roman;" vertex="1" parent="1">
          <mxGeometry x="-850" y="-630" width="200" height="100" as="geometry" />
        </mxCell>
        <mxCell id="43ZJeblcSDLC2HeD9tNM-9" value="用途" style="text;html=1;align=center;verticalAlign=middle;whiteSpace=wrap;rounded=0;fontSize=23;" vertex="1" parent="1">
          <mxGeometry x="-495" y="-860" width="60" height="30" as="geometry" />
        </mxCell>
        <mxCell id="43ZJeblcSDLC2HeD9tNM-11" value="生成植被茂盛度" style="text;html=1;align=center;verticalAlign=middle;whiteSpace=wrap;rounded=0;fontSize=18;" vertex="1" parent="1">
          <mxGeometry x="-530" y="-790" width="130" height="30" as="geometry" />
        </mxCell>
        <mxCell id="43ZJeblcSDLC2HeD9tNM-12" value="生成作物长势" style="text;html=1;align=center;verticalAlign=middle;whiteSpace=wrap;rounded=0;fontSize=18;fontColor=light-dark(#fe0101, #ededed);" vertex="1" parent="1">
          <mxGeometry x="-530" y="-755" width="130" height="30" as="geometry" />
        </mxCell>
        <mxCell id="43ZJeblcSDLC2HeD9tNM-13" value="生成植被茂盛度" style="text;html=1;align=center;verticalAlign=middle;whiteSpace=wrap;rounded=0;fontSize=18;" vertex="1" parent="1">
          <mxGeometry x="-530" y="-720" width="130" height="30" as="geometry" />
        </mxCell>
        <mxCell id="43ZJeblcSDLC2HeD9tNM-14" value="生成高清底图" style="text;html=1;align=center;verticalAlign=middle;whiteSpace=wrap;rounded=0;fontSize=18;fontColor=light-dark(#ff0000, #ededed);" vertex="1" parent="1">
          <mxGeometry x="-530" y="-630" width="130" height="30" as="geometry" />
        </mxCell>
        <mxCell id="43ZJeblcSDLC2HeD9tNM-15" value="生成航拍影像" style="text;html=1;align=center;verticalAlign=middle;whiteSpace=wrap;rounded=0;fontSize=18;fontColor=light-dark(#fe0101, #ededed);" vertex="1" parent="1">
          <mxGeometry x="-530" y="-595" width="130" height="30" as="geometry" />
        </mxCell>
        <mxCell id="43ZJeblcSDLC2HeD9tNM-16" value="高程分析" style="text;html=1;align=center;verticalAlign=middle;whiteSpace=wrap;rounded=0;fontSize=18;" vertex="1" parent="1">
          <mxGeometry x="-530" y="-560" width="130" height="30" as="geometry" />
        </mxCell>
        <mxCell id="43ZJeblcSDLC2HeD9tNM-18" value="TIF" style="text;html=1;align=center;verticalAlign=middle;whiteSpace=wrap;rounded=0;fontSize=23;" vertex="1" parent="1">
          <mxGeometry x="-620" y="-755" width="60" height="30" as="geometry" />
        </mxCell>
        <mxCell id="43ZJeblcSDLC2HeD9tNM-19" value="JPG" style="text;html=1;align=center;verticalAlign=middle;whiteSpace=wrap;rounded=0;fontSize=23;" vertex="1" parent="1">
          <mxGeometry x="-620" y="-595" width="60" height="30" as="geometry" />
        </mxCell>
        <mxCell id="43ZJeblcSDLC2HeD9tNM-20" value="&lt;font style=&quot;font-size: 24px;&quot;&gt;栅格数据&lt;/font&gt;" style="rounded=1;whiteSpace=wrap;html=1;fontStyle=0" vertex="1" parent="1">
          <mxGeometry x="-1160" y="-440" width="200" height="100" as="geometry" />
        </mxCell>
        <mxCell id="43ZJeblcSDLC2HeD9tNM-21" value="光谱类型" style="text;html=1;align=center;verticalAlign=middle;whiteSpace=wrap;rounded=0;fontSize=23;" vertex="1" parent="1">
          <mxGeometry x="-810" y="-860" width="120" height="30" as="geometry" />
        </mxCell>
        <mxCell id="43ZJeblcSDLC2HeD9tNM-22" value="格式" style="text;html=1;align=center;verticalAlign=middle;whiteSpace=wrap;rounded=0;fontSize=23;" vertex="1" parent="1">
          <mxGeometry x="-650" y="-860" width="120" height="30" as="geometry" />
        </mxCell>
        <mxCell id="43ZJeblcSDLC2HeD9tNM-28" value="&lt;span style=&quot;font-size: 19px;&quot;&gt;无人机影像，多张&lt;/span&gt;" style="text;html=1;align=center;verticalAlign=middle;whiteSpace=wrap;rounded=0;fontSize=23;" vertex="1" parent="1">
          <mxGeometry x="-1160" y="-590" width="200" height="30" as="geometry" />
        </mxCell>
        <mxCell id="43ZJeblcSDLC2HeD9tNM-29" value="&lt;span style=&quot;font-size: 19px;&quot;&gt;卫星、无人机给出的大图，单张&lt;/span&gt;" style="text;html=1;align=center;verticalAlign=middle;whiteSpace=wrap;rounded=0;fontSize=23;" vertex="1" parent="1">
          <mxGeometry x="-1190" y="-320" width="280" height="30" as="geometry" />
        </mxCell>
      </root>
    </mxGraphModel>
  </diagram>
</mxfile>
